<?xml version="1.0" encoding="UTF-8"?>
<!DOCTYPE svg PUBLIC "-//W3C//DTD SVG 1.1//EN" "http://www.w3.org/Graphics/SVG/1.1/DTD/svg11.dtd">
<svg xmlns="http://www.w3.org/2000/svg" style="background: #ffffff; background-color: #ffffff; color-scheme: light;" xmlns:xlink="http://www.w3.org/1999/xlink" version="1.1" width="1645px" height="1004px" viewBox="0 0 1645 1004"><defs><clipPath id="mx-clip-574-211-343-31-0"><rect x="574" y="211" width="343" height="31"/></clipPath><clipPath id="mx-clip-574-242-343-31-0"><rect x="574" y="242" width="343" height="31"/></clipPath><clipPath id="mx-clip-574-273-343-31-0"><rect x="574" y="273" width="343" height="31"/></clipPath><clipPath id="mx-clip-574-304-343-31-0"><rect x="574" y="304" width="343" height="31"/></clipPath><clipPath id="mx-clip-204-496-307-41-0"><rect x="204" y="496" width="307" height="41"/></clipPath><clipPath id="mx-clip-574-485-265-42-0"><rect x="574" y="485" width="265" height="42"/></clipPath><clipPath id="mx-clip-994-392-279-41-0"><rect x="994" y="392" width="279" height="41"/></clipPath><clipPath id="mx-clip-1334-200-296-33-0"><rect x="1334" y="200" width="296" height="33"/></clipPath><clipPath id="mx-clip-14-858-340-33-0"><rect x="14" y="858" width="340" height="33"/></clipPath><clipPath id="mx-clip-424-663-264-35-0"><rect x="424" y="663" width="264" height="35"/></clipPath><clipPath id="mx-clip-424-698-264-35-0"><rect x="424" y="698" width="264" height="35"/></clipPath><clipPath id="mx-clip-720-648-325-33-0"><rect x="720" y="648" width="325" height="33"/></clipPath><clipPath id="mx-clip-720-681-325-33-0"><rect x="720" y="681" width="325" height="33"/></clipPath><clipPath id="mx-clip-720-714-325-33-0"><rect x="720" y="714" width="325" height="33"/></clipPath><clipPath id="mx-clip-1194-544-381-32-0"><rect x="1194" y="544" width="381" height="32"/></clipPath><clipPath id="mx-clip-1194-576-381-32-0"><rect x="1194" y="576" width="381" height="32"/></clipPath><clipPath id="mx-clip-1194-608-381-32-0"><rect x="1194" y="608" width="381" height="32"/></clipPath><clipPath id="mx-clip-1194-640-381-32-0"><rect x="1194" y="640" width="381" height="32"/></clipPath><clipPath id="mx-clip-1019-57-294-32-0"><rect x="1019" y="57" width="294" height="32"/></clipPath><clipPath id="mx-clip-1019-89-294-32-0"><rect x="1019" y="89" width="294" height="32"/></clipPath><clipPath id="mx-clip-1019-121-294-32-0"><rect x="1019" y="121" width="294" height="32"/></clipPath><clipPath id="mx-clip-1019-153-294-32-0"><rect x="1019" y="153" width="294" height="32"/></clipPath><clipPath id="mx-clip-1019-185-294-32-0"><rect x="1019" y="185" width="294" height="32"/></clipPath><clipPath id="mx-clip-404-848-235-33-0"><rect x="404" y="848" width="235" height="33"/></clipPath><clipPath id="mx-clip-404-881-235-33-0"><rect x="404" y="881" width="235" height="33"/></clipPath><clipPath id="mx-clip-404-914-235-33-0"><rect x="404" y="914" width="235" height="33"/></clipPath><clipPath id="mx-clip-404-947-235-33-0"><rect x="404" y="947" width="235" height="33"/></clipPath><clipPath id="mx-clip-1384-328-197-33-0"><rect x="1384" y="328" width="197" height="33"/></clipPath><clipPath id="mx-clip-1384-361-197-33-0"><rect x="1384" y="361" width="197" height="33"/></clipPath><clipPath id="mx-clip-1384-394-197-33-0"><rect x="1384" y="394" width="197" height="33"/></clipPath><clipPath id="mx-clip-1384-427-197-33-0"><rect x="1384" y="427" width="197" height="33"/></clipPath></defs><rect fill="#ffffff" width="100%" height="100%" x="0" y="0" style="fill: rgb(255, 255, 255);"/><g><g data-cell-id="0"><g data-cell-id="1"><g data-cell-id="6uPOkOA3K9cqIQYHYVLA-1"><g transform="translate(0.5,0.5)"><path d="M 570 205.91 L 570 160 L 921 160 L 921 205.91" fill="#ffffff" stroke="#000000" stroke-miterlimit="10" pointer-events="all" style="fill: rgb(255, 255, 255); stroke: rgb(0, 0, 0);"/><path d="M 570 205.91 L 570 337.91 L 921 337.91 L 921 205.91" fill="none" stroke="#000000" stroke-miterlimit="10" pointer-events="none" style="stroke: rgb(0, 0, 0);"/><path d="M 570 205.91 L 921 205.91" fill="none" stroke="#000000" stroke-miterlimit="10" pointer-events="none" style="stroke: rgb(0, 0, 0);"/></g><g><g fill="#000000" font-family="Helvetica" font-weight="bold" text-anchor="middle" font-size="12px" style="fill: rgb(0, 0, 0);"><text x="745.5" y="178">&lt;&lt;abstract&gt;&gt;</text><text x="745.5" y="192">BaseLoader</text></g></g><g data-cell-id="6uPOkOA3K9cqIQYHYVLA-2"><g transform="translate(0.5,0.5)"><rect x="570" y="205.91" width="351" height="31" fill="none" stroke="none" pointer-events="all"/></g><g><g fill="#000000" font-family="Helvetica" font-size="12px" clip-path="url(#mx-clip-574-211-343-31-0)" style="fill: rgb(0, 0, 0);"><text x="576" y="223.91">#config: LoaderConfig</text></g></g></g><g data-cell-id="6uPOkOA3K9cqIQYHYVLA-3"><g transform="translate(0.5,0.5)"><rect x="570" y="236.91" width="351" height="31" fill="none" stroke="none" pointer-events="all"/></g><g><g fill="#000000" font-family="Helvetica" font-size="12px" clip-path="url(#mx-clip-574-242-343-31-0)" style="fill: rgb(0, 0, 0);"><text x="576" y="254.91">#converter: BaseConverter</text></g></g></g><g data-cell-id="6uPOkOA3K9cqIQYHYVLA-4"><g transform="translate(0.5,0.5)"><rect x="570" y="267.91" width="351" height="31" fill="none" stroke="none" pointer-events="all"/></g><g><g fill="#000000" font-family="Helvetica" font-size="12px" clip-path="url(#mx-clip-574-273-343-31-0)" style="fill: rgb(0, 0, 0);"><text x="576" y="285.91">#preprocessors: List&lt;BasePreprocessor&gt;</text></g></g></g><g data-cell-id="6uPOkOA3K9cqIQYHYVLA-5"><g transform="translate(0.5,0.5)"><rect x="570" y="298.91" width="351" height="31" fill="none" stroke="none" pointer-events="all"/></g><g><g fill="#000000" font-family="Helvetica" font-size="12px" clip-path="url(#mx-clip-574-304-343-31-0)" style="fill: rgb(0, 0, 0);"><text x="576" y="316.91">#splitter: BaseSplitter</text></g></g></g><g data-cell-id="6uPOkOA3K9cqIQYHYVLA-6"><g transform="translate(0.5,0.5)"><path d="M 570 333.91 L 921 333.91" fill="none" stroke="#000000" stroke-miterlimit="10" pointer-events="all" style="stroke: rgb(0, 0, 0);"/></g></g></g><g data-cell-id="6uPOkOA3K9cqIQYHYVLA-13"><g transform="translate(0.5,0.5)"><path d="M 200 491.33 L 200 430 L 515 430 L 515 491.33" fill="#ffffff" stroke="#000000" stroke-miterlimit="10" pointer-events="all" style="fill: rgb(255, 255, 255); stroke: rgb(0, 0, 0);"/><path d="M 200 491.33 L 200 540.33 L 515 540.33 L 515 491.33" fill="none" stroke="#000000" stroke-miterlimit="10" pointer-events="none" style="stroke: rgb(0, 0, 0);"/><path d="M 200 491.33 L 515 491.33" fill="none" stroke="#000000" stroke-miterlimit="10" pointer-events="none" style="stroke: rgb(0, 0, 0);"/></g><g><g fill="#000000" font-family="Helvetica" font-weight="bold" text-anchor="middle" font-size="12px" style="fill: rgb(0, 0, 0);"><text x="357.5" y="448">&lt;&lt;abstract&gt;&gt;</text><text x="357.5" y="462">BaseConverter</text></g></g><g data-cell-id="6uPOkOA3K9cqIQYHYVLA-14"><g transform="translate(0.5,0.5)"><rect x="200" y="491.33" width="315" height="41" fill="none" stroke="none" pointer-events="all"/></g><g><g fill="#000000" font-family="Helvetica" font-size="12px" clip-path="url(#mx-clip-204-496-307-41-0)" style="fill: rgb(0, 0, 0);"><text x="206" y="509.33">#config: ConverterConfig</text></g></g></g><g data-cell-id="6uPOkOA3K9cqIQYHYVLA-15"><g transform="translate(0.5,0.5)"><path d="M 200 536.33 L 515 536.33" fill="none" stroke="#000000" stroke-miterlimit="10" pointer-events="all" style="stroke: rgb(0, 0, 0);"/></g></g></g><g data-cell-id="6uPOkOA3K9cqIQYHYVLA-18"><g transform="translate(0.5,0.5)"><path d="M 570 472.25 L 570 410 L 843 410 L 843 472.25" fill="#ffffff" stroke="#000000" stroke-miterlimit="10" pointer-events="all" style="fill: rgb(255, 255, 255); stroke: rgb(0, 0, 0);"/><path d="M 570 472.25 L 570 522.25 L 843 522.25 L 843 472.25" fill="none" stroke="#000000" stroke-miterlimit="10" pointer-events="none" style="stroke: rgb(0, 0, 0);"/><path d="M 570 472.25 L 843 472.25" fill="none" stroke="#000000" stroke-miterlimit="10" pointer-events="none" style="stroke: rgb(0, 0, 0);"/></g><g><g fill="#000000" font-family="Helvetica" font-weight="bold" text-anchor="middle" font-size="12px" style="fill: rgb(0, 0, 0);"><text x="706.5" y="428">&lt;&lt;abstract&gt;&gt;</text><text x="706.5" y="442">BasePreprocessor</text></g></g><g data-cell-id="6uPOkOA3K9cqIQYHYVLA-19"><g transform="translate(0.5,0.5)"><path d="M 570 476.25 L 843 476.25" fill="none" stroke="#000000" stroke-miterlimit="10" pointer-events="all" style="stroke: rgb(0, 0, 0);"/></g></g><g data-cell-id="6uPOkOA3K9cqIQYHYVLA-20"><g transform="translate(0.5,0.5)"><rect x="570" y="480.25" width="273" height="42" fill="none" stroke="none" pointer-events="all"/></g><g><g fill="#000000" font-family="Helvetica" font-size="12px" clip-path="url(#mx-clip-574-485-265-42-0)" style="fill: rgb(0, 0, 0);"><text x="576" y="498.25">+process(df) : DataFrame</text></g></g></g></g><g data-cell-id="6uPOkOA3K9cqIQYHYVLA-22"><g transform="translate(0.5,0.5)"><path d="M 990 387.39 L 990 326.06 L 1277 326.06 L 1277 387.39" fill="#ffffff" stroke="#000000" stroke-miterlimit="10" pointer-events="all" style="fill: rgb(255, 255, 255); stroke: rgb(0, 0, 0);"/><path d="M 990 387.39 L 990 436.39 L 1277 436.39 L 1277 387.39" fill="none" stroke="#000000" stroke-miterlimit="10" pointer-events="none" style="stroke: rgb(0, 0, 0);"/><path d="M 990 387.39 L 1277 387.39" fill="none" stroke="#000000" stroke-miterlimit="10" pointer-events="none" style="stroke: rgb(0, 0, 0);"/></g><g><g fill="#000000" font-family="Helvetica" font-weight="bold" text-anchor="middle" font-size="12px" style="fill: rgb(0, 0, 0);"><text x="1133.5" y="344.06">&lt;&lt;abstract&gt;&gt;</text><text x="1133.5" y="358.06">BaseSplitter</text></g></g><g data-cell-id="6uPOkOA3K9cqIQYHYVLA-23"><g transform="translate(0.5,0.5)"><rect x="990" y="387.39" width="287" height="41" fill="none" stroke="none" pointer-events="all"/></g><g><g fill="#000000" font-family="Helvetica" font-size="12px" clip-path="url(#mx-clip-994-392-279-41-0)" style="fill: rgb(0, 0, 0);"><text x="996" y="405.39">#config: SplitterConfig</text></g></g></g><g data-cell-id="6uPOkOA3K9cqIQYHYVLA-24"><g transform="translate(0.5,0.5)"><path d="M 990 432.39 L 1277 432.39" fill="none" stroke="#000000" stroke-miterlimit="10" pointer-events="all" style="stroke: rgb(0, 0, 0);"/></g></g></g><g data-cell-id="6uPOkOA3K9cqIQYHYVLA-27"><g transform="translate(0.5,0.5)"><path d="M 1330 187 L 1330 153.86 L 1634 153.86 L 1634 187" fill="#ffffff" stroke="#000000" stroke-miterlimit="10" pointer-events="all" style="fill: rgb(255, 255, 255); stroke: rgb(0, 0, 0);"/><path d="M 1330 187 L 1330 228 L 1634 228 L 1634 187" fill="none" stroke="#000000" stroke-miterlimit="10" pointer-events="none" style="stroke: rgb(0, 0, 0);"/><path d="M 1330 187 L 1634 187" fill="none" stroke="#000000" stroke-miterlimit="10" pointer-events="none" style="stroke: rgb(0, 0, 0);"/></g><g><g fill="#000000" font-family="Helvetica" font-weight="bold" text-anchor="middle" font-size="12px" style="fill: rgb(0, 0, 0);"><text x="1482" y="171.86">MINDLoader</text></g></g><g data-cell-id="6uPOkOA3K9cqIQYHYVLA-30"><g transform="translate(0.5,0.5)"><path d="M 1330 191 L 1634 191" fill="none" stroke="#000000" stroke-miterlimit="10" pointer-events="all" style="stroke: rgb(0, 0, 0);"/></g></g><g data-cell-id="6uPOkOA3K9cqIQYHYVLA-32"><g transform="translate(0.5,0.5)"><rect x="1330" y="195" width="304" height="33" fill="none" stroke="none" pointer-events="all"/></g><g><g fill="#000000" font-family="Helvetica" font-size="12px" clip-path="url(#mx-clip-1334-200-296-33-0)" style="fill: rgb(0, 0, 0);"><text x="1336" y="213">-_parse_behaviors() : DataFrame</text></g></g></g></g><g data-cell-id="6uPOkOA3K9cqIQYHYVLA-35"><g transform="translate(0.5,0.5)"><path d="M 10 853.14 L 10 820 L 358 820 L 358 853.14" fill="#ffffff" stroke="#000000" stroke-miterlimit="10" pointer-events="all" style="fill: rgb(255, 255, 255); stroke: rgb(0, 0, 0);"/><path d="M 10 853.14 L 10 894.14 L 358 894.14 L 358 853.14" fill="none" stroke="#000000" stroke-miterlimit="10" pointer-events="none" style="stroke: rgb(0, 0, 0);"/><path d="M 10 853.14 L 358 853.14" fill="none" stroke="#000000" stroke-miterlimit="10" pointer-events="none" style="stroke: rgb(0, 0, 0);"/></g><g><g fill="#000000" font-family="Helvetica" font-weight="bold" text-anchor="middle" font-size="12px" style="fill: rgb(0, 0, 0);"><text x="184" y="838">MINDAtomicConverter</text></g></g><g data-cell-id="6uPOkOA3K9cqIQYHYVLA-36"><g transform="translate(0.5,0.5)"><rect x="10" y="853.14" width="348" height="33" fill="none" stroke="none" pointer-events="all"/></g><g><g fill="#000000" font-family="Helvetica" font-size="12px" clip-path="url(#mx-clip-14-858-340-33-0)" style="fill: rgb(0, 0, 0);"><text x="16" y="871.14">-field_mappings: Dict</text></g></g></g><g data-cell-id="6uPOkOA3K9cqIQYHYVLA-37"><g transform="translate(0.5,0.5)"><path d="M 10 890.14 L 358 890.14" fill="none" stroke="#000000" stroke-miterlimit="10" pointer-events="all" style="stroke: rgb(0, 0, 0);"/></g></g></g><g data-cell-id="6uPOkOA3K9cqIQYHYVLA-43"><g transform="translate(0.5,0.5)"><path d="M 420 658.41 L 420 623.74 L 692 623.74 L 692 658.41" fill="#ffffff" stroke="#000000" stroke-miterlimit="10" pointer-events="all" style="fill: rgb(255, 255, 255); stroke: rgb(0, 0, 0);"/><path d="M 420 658.41 L 420 736.41 L 692 736.41 L 692 658.41" fill="none" stroke="#000000" stroke-miterlimit="10" pointer-events="none" style="stroke: rgb(0, 0, 0);"/><path d="M 420 658.41 L 692 658.41" fill="none" stroke="#000000" stroke-miterlimit="10" pointer-events="none" style="stroke: rgb(0, 0, 0);"/></g><g><g fill="#000000" font-family="Helvetica" font-weight="bold" text-anchor="middle" font-size="12px" style="fill: rgb(0, 0, 0);"><text x="556" y="641.74">SpacyTextCleaner</text></g></g><g data-cell-id="6uPOkOA3K9cqIQYHYVLA-44"><g transform="translate(0.5,0.5)"><rect x="420" y="658.41" width="272" height="35" fill="none" stroke="none" pointer-events="all"/></g><g><g fill="#000000" font-family="Helvetica" font-size="12px" clip-path="url(#mx-clip-424-663-264-35-0)" style="fill: rgb(0, 0, 0);"><text x="426" y="676.41">-nlp: spacy.Language</text></g></g></g><g data-cell-id="6uPOkOA3K9cqIQYHYVLA-45"><g transform="translate(0.5,0.5)"><rect x="420" y="693.41" width="272" height="35" fill="none" stroke="none" pointer-events="all"/></g><g><g fill="#000000" font-family="Helvetica" font-size="12px" clip-path="url(#mx-clip-424-698-264-35-0)" style="fill: rgb(0, 0, 0);"><text x="426" y="711.41">-text_columns: List&lt;str&gt;</text></g></g></g><g data-cell-id="6uPOkOA3K9cqIQYHYVLA-46"><g transform="translate(0.5,0.5)"><path d="M 420 732.41 L 692 732.41" fill="none" stroke="#000000" stroke-miterlimit="10" pointer-events="all" style="stroke: rgb(0, 0, 0);"/></g></g></g><g data-cell-id="6uPOkOA3K9cqIQYHYVLA-50"><g transform="translate(0.5,0.5)"><path d="M 716 643.14 L 716 610 L 1049 610 L 1049 643.14" fill="#ffffff" stroke="#000000" stroke-miterlimit="10" pointer-events="all" style="fill: rgb(255, 255, 255); stroke: rgb(0, 0, 0);"/><path d="M 716 643.14 L 716 750.14 L 1049 750.14 L 1049 643.14" fill="none" stroke="#000000" stroke-miterlimit="10" pointer-events="none" style="stroke: rgb(0, 0, 0);"/><path d="M 716 643.14 L 1049 643.14" fill="none" stroke="#000000" stroke-miterlimit="10" pointer-events="none" style="stroke: rgb(0, 0, 0);"/></g><g><g fill="#000000" font-family="Helvetica" font-weight="bold" text-anchor="middle" font-size="12px" style="fill: rgb(0, 0, 0);"><text x="882.5" y="628">RecursivePruner</text></g></g><g data-cell-id="6uPOkOA3K9cqIQYHYVLA-51"><g transform="translate(0.5,0.5)"><rect x="716" y="643.14" width="333" height="33" fill="none" stroke="none" pointer-events="all"/></g><g><g fill="#000000" font-family="Helvetica" font-size="12px" clip-path="url(#mx-clip-720-648-325-33-0)" style="fill: rgb(0, 0, 0);"><text x="722" y="661.14">-min_user_interactions: int</text></g></g></g><g data-cell-id="6uPOkOA3K9cqIQYHYVLA-52"><g transform="translate(0.5,0.5)"><rect x="716" y="676.14" width="333" height="33" fill="none" stroke="none" pointer-events="all"/></g><g><g fill="#000000" font-family="Helvetica" font-size="12px" clip-path="url(#mx-clip-720-681-325-33-0)" style="fill: rgb(0, 0, 0);"><text x="722" y="694.14">-min_item_interactions: int</text></g></g></g><g data-cell-id="6uPOkOA3K9cqIQYHYVLA-53"><g transform="translate(0.5,0.5)"><rect x="716" y="709.14" width="333" height="33" fill="none" stroke="none" pointer-events="all"/></g><g><g fill="#000000" font-family="Helvetica" font-size="12px" clip-path="url(#mx-clip-720-714-325-33-0)" style="fill: rgb(0, 0, 0);"><text x="722" y="727.14">-max_iterations: int</text></g></g></g><g data-cell-id="6uPOkOA3K9cqIQYHYVLA-54"><g transform="translate(0.5,0.5)"><path d="M 716 746.14 L 1049 746.14" fill="none" stroke="#000000" stroke-miterlimit="10" pointer-events="all" style="stroke: rgb(0, 0, 0);"/></g></g></g><g data-cell-id="6uPOkOA3K9cqIQYHYVLA-58"><g transform="translate(0.5,0.5)"><path d="M 1190 538.93 L 1190 506.93 L 1579 506.93 L 1579 538.93" fill="#ffffff" stroke="#000000" stroke-miterlimit="10" pointer-events="all" style="fill: rgb(255, 255, 255); stroke: rgb(0, 0, 0);"/><path d="M 1190 538.93 L 1190 674.93 L 1579 674.93 L 1579 538.93" fill="none" stroke="#000000" stroke-miterlimit="10" pointer-events="none" style="stroke: rgb(0, 0, 0);"/><path d="M 1190 538.93 L 1579 538.93" fill="none" stroke="#000000" stroke-miterlimit="10" pointer-events="none" style="stroke: rgb(0, 0, 0);"/></g><g><g fill="#000000" font-family="Helvetica" font-weight="bold" text-anchor="middle" font-size="12px" style="fill: rgb(0, 0, 0);"><text x="1384.5" y="524.93">TemporalSplitter</text></g></g><g data-cell-id="6uPOkOA3K9cqIQYHYVLA-59"><g transform="translate(0.5,0.5)"><rect x="1190" y="538.93" width="389" height="32" fill="none" stroke="none" pointer-events="all"/></g><g><g fill="#000000" font-family="Helvetica" font-size="12px" clip-path="url(#mx-clip-1194-544-381-32-0)" style="fill: rgb(0, 0, 0);"><text x="1196" y="556.93">-temporal_column: str</text></g></g></g><g data-cell-id="6uPOkOA3K9cqIQYHYVLA-60"><g transform="translate(0.5,0.5)"><rect x="1190" y="570.93" width="389" height="32" fill="none" stroke="none" pointer-events="all"/></g><g><g fill="#000000" font-family="Helvetica" font-size="12px" clip-path="url(#mx-clip-1194-576-381-32-0)" style="fill: rgb(0, 0, 0);"><text x="1196" y="588.93">-granularity: str</text></g></g></g><g data-cell-id="6uPOkOA3K9cqIQYHYVLA-61"><g transform="translate(0.5,0.5)"><rect x="1190" y="602.93" width="389" height="32" fill="none" stroke="none" pointer-events="all"/></g><g><g fill="#000000" font-family="Helvetica" font-size="12px" clip-path="url(#mx-clip-1194-608-381-32-0)" style="fill: rgb(0, 0, 0);"><text x="1196" y="620.93">-train_ratio: float</text></g></g></g><g data-cell-id="6uPOkOA3K9cqIQYHYVLA-62"><g transform="translate(0.5,0.5)"><rect x="1190" y="634.93" width="389" height="32" fill="none" stroke="none" pointer-events="all"/></g><g><g fill="#000000" font-family="Helvetica" font-size="12px" clip-path="url(#mx-clip-1194-640-381-32-0)" style="fill: rgb(0, 0, 0);"><text x="1196" y="652.93">-valid_ratio: float</text></g></g></g><g data-cell-id="6uPOkOA3K9cqIQYHYVLA-63"><g transform="translate(0.5,0.5)"><path d="M 1190 670.93 L 1579 670.93" fill="none" stroke="#000000" stroke-miterlimit="10" pointer-events="all" style="stroke: rgb(0, 0, 0);"/></g></g></g><g data-cell-id="6uPOkOA3K9cqIQYHYVLA-67"><g transform="translate(0.5,0.5)"><path d="M 1015 52 L 1015 20 L 1317 20 L 1317 52" fill="#ffffff" stroke="#000000" stroke-miterlimit="10" pointer-events="all" style="fill: rgb(255, 255, 255); stroke: rgb(0, 0, 0);"/><path d="M 1015 52 L 1015 228 L 1317 228 L 1317 52" fill="none" stroke="#000000" stroke-miterlimit="10" pointer-events="none" style="stroke: rgb(0, 0, 0);"/><path d="M 1015 52 L 1317 52" fill="none" stroke="#000000" stroke-miterlimit="10" pointer-events="none" style="stroke: rgb(0, 0, 0);"/></g><g><g fill="#000000" font-family="Helvetica" font-weight="bold" text-anchor="middle" font-size="12px" style="fill: rgb(0, 0, 0);"><text x="1166" y="38">LoaderConfig</text></g></g><g data-cell-id="6uPOkOA3K9cqIQYHYVLA-68"><g transform="translate(0.5,0.5)"><rect x="1015" y="52" width="302" height="32" fill="none" stroke="none" pointer-events="all"/></g><g><g fill="#000000" font-family="Helvetica" font-size="12px" clip-path="url(#mx-clip-1019-57-294-32-0)" style="fill: rgb(0, 0, 0);"><text x="1021" y="70">+dataset_name: str</text></g></g></g><g data-cell-id="6uPOkOA3K9cqIQYHYVLA-69"><g transform="translate(0.5,0.5)"><rect x="1015" y="84" width="302" height="32" fill="none" stroke="none" pointer-events="all"/></g><g><g fill="#000000" font-family="Helvetica" font-size="12px" clip-path="url(#mx-clip-1019-89-294-32-0)" style="fill: rgb(0, 0, 0);"><text x="1021" y="102">+raw_data_path: Path</text></g></g></g><g data-cell-id="6uPOkOA3K9cqIQYHYVLA-70"><g transform="translate(0.5,0.5)"><rect x="1015" y="116" width="302" height="32" fill="none" stroke="none" pointer-events="all"/></g><g><g fill="#000000" font-family="Helvetica" font-size="12px" clip-path="url(#mx-clip-1019-121-294-32-0)" style="fill: rgb(0, 0, 0);"><text x="1021" y="134">+output_path: Path</text></g></g></g><g data-cell-id="6uPOkOA3K9cqIQYHYVLA-71"><g transform="translate(0.5,0.5)"><rect x="1015" y="148" width="302" height="32" fill="none" stroke="none" pointer-events="all"/></g><g><g fill="#000000" font-family="Helvetica" font-size="12px" clip-path="url(#mx-clip-1019-153-294-32-0)" style="fill: rgb(0, 0, 0);"><text x="1021" y="166">+preprocessing_enabled: bool</text></g></g></g><g data-cell-id="6uPOkOA3K9cqIQYHYVLA-72"><g transform="translate(0.5,0.5)"><rect x="1015" y="180" width="302" height="32" fill="none" stroke="none" pointer-events="all"/></g><g><g fill="#000000" font-family="Helvetica" font-size="12px" clip-path="url(#mx-clip-1019-185-294-32-0)" style="fill: rgb(0, 0, 0);"><text x="1021" y="198">+temporal_hours: Optional&lt;int&gt;</text></g></g></g><g data-cell-id="6uPOkOA3K9cqIQYHYVLA-73"><g transform="translate(0.5,0.5)"><path d="M 1015 220 L 1317 220" fill="none" stroke="#000000" stroke-miterlimit="10" pointer-events="all" style="stroke: rgb(0, 0, 0);"/></g></g></g><g data-cell-id="6uPOkOA3K9cqIQYHYVLA-74"><g transform="translate(0.5,0.5)"><path d="M 400 843.45 L 400 810 L 643 810 L 643 843.45" fill="#ffffff" stroke="#000000" stroke-miterlimit="10" pointer-events="all" style="fill: rgb(255, 255, 255); stroke: rgb(0, 0, 0);"/><path d="M 400 843.45 L 400 992.45 L 643 992.45 L 643 843.45" fill="none" stroke="#000000" stroke-miterlimit="10" pointer-events="none" style="stroke: rgb(0, 0, 0);"/><path d="M 400 843.45 L 643 843.45" fill="none" stroke="#000000" stroke-miterlimit="10" pointer-events="none" style="stroke: rgb(0, 0, 0);"/></g><g><g fill="#000000" font-family="Helvetica" font-weight="bold" text-anchor="middle" font-size="12px" style="fill: rgb(0, 0, 0);"><text x="521.5" y="828">ConverterConfig</text></g></g><g data-cell-id="6uPOkOA3K9cqIQYHYVLA-75"><g transform="translate(0.5,0.5)"><rect x="400" y="843.45" width="243" height="33" fill="none" stroke="none" pointer-events="all"/></g><g><g fill="#000000" font-family="Helvetica" font-size="12px" clip-path="url(#mx-clip-404-848-235-33-0)" style="fill: rgb(0, 0, 0);"><text x="406" y="861.45">+user_id_field: str</text></g></g></g><g data-cell-id="6uPOkOA3K9cqIQYHYVLA-76"><g transform="translate(0.5,0.5)"><rect x="400" y="876.45" width="243" height="33" fill="none" stroke="none" pointer-events="all"/></g><g><g fill="#000000" font-family="Helvetica" font-size="12px" clip-path="url(#mx-clip-404-881-235-33-0)" style="fill: rgb(0, 0, 0);"><text x="406" y="894.45">+item_id_field: str</text></g></g></g><g data-cell-id="6uPOkOA3K9cqIQYHYVLA-77"><g transform="translate(0.5,0.5)"><rect x="400" y="909.45" width="243" height="33" fill="none" stroke="none" pointer-events="all"/></g><g><g fill="#000000" font-family="Helvetica" font-size="12px" clip-path="url(#mx-clip-404-914-235-33-0)" style="fill: rgb(0, 0, 0);"><text x="406" y="927.45">+timestamp_field: str</text></g></g></g><g data-cell-id="6uPOkOA3K9cqIQYHYVLA-78"><g transform="translate(0.5,0.5)"><rect x="400" y="942.45" width="243" height="33" fill="none" stroke="none" pointer-events="all"/></g><g><g fill="#000000" font-family="Helvetica" font-size="12px" clip-path="url(#mx-clip-404-947-235-33-0)" style="fill: rgb(0, 0, 0);"><text x="406" y="960.45">+text_fields: List&lt;str&gt;</text></g></g></g><g data-cell-id="6uPOkOA3K9cqIQYHYVLA-79"><g transform="translate(0.5,0.5)"><path d="M 400 983.95 L 643 983.95" fill="none" stroke="#000000" stroke-miterlimit="10" pointer-events="all" style="stroke: rgb(0, 0, 0);"/></g></g></g><g data-cell-id="6uPOkOA3K9cqIQYHYVLA-80"><g transform="translate(0.5,0.5)"><path d="M 1380 323.45 L 1380 290 L 1585 290 L 1585 323.45" fill="#ffffff" stroke="#000000" stroke-miterlimit="10" pointer-events="all" style="fill: rgb(255, 255, 255); stroke: rgb(0, 0, 0);"/><path d="M 1380 323.45 L 1380 472.45 L 1585 472.45 L 1585 323.45" fill="none" stroke="#000000" stroke-miterlimit="10" pointer-events="none" style="stroke: rgb(0, 0, 0);"/><path d="M 1380 323.45 L 1585 323.45" fill="none" stroke="#000000" stroke-miterlimit="10" pointer-events="none" style="stroke: rgb(0, 0, 0);"/></g><g><g fill="#000000" font-family="Helvetica" font-weight="bold" text-anchor="middle" font-size="12px" style="fill: rgb(0, 0, 0);"><text x="1482.5" y="308">SplitterConfig</text></g></g><g data-cell-id="6uPOkOA3K9cqIQYHYVLA-81"><g transform="translate(0.5,0.5)"><rect x="1380" y="323.45" width="205" height="33" fill="none" stroke="none" pointer-events="all"/></g><g><g fill="#000000" font-family="Helvetica" font-size="12px" clip-path="url(#mx-clip-1384-328-197-33-0)" style="fill: rgb(0, 0, 0);"><text x="1386" y="341.45">+train_ratio: float</text></g></g></g><g data-cell-id="6uPOkOA3K9cqIQYHYVLA-82"><g transform="translate(0.5,0.5)"><rect x="1380" y="356.45" width="205" height="33" fill="none" stroke="none" pointer-events="all"/></g><g><g fill="#000000" font-family="Helvetica" font-size="12px" clip-path="url(#mx-clip-1384-361-197-33-0)" style="fill: rgb(0, 0, 0);"><text x="1386" y="374.45">+valid_ratio: float</text></g></g></g><g data-cell-id="6uPOkOA3K9cqIQYHYVLA-83"><g transform="translate(0.5,0.5)"><rect x="1380" y="389.45" width="205" height="33" fill="none" stroke="none" pointer-events="all"/></g><g><g fill="#000000" font-family="Helvetica" font-size="12px" clip-path="url(#mx-clip-1384-394-197-33-0)" style="fill: rgb(0, 0, 0);"><text x="1386" y="407.45">+test_ratio: float</text></g></g></g><g data-cell-id="6uPOkOA3K9cqIQYHYVLA-84"><g transform="translate(0.5,0.5)"><rect x="1380" y="422.45" width="205" height="33" fill="none" stroke="none" pointer-events="all"/></g><g><g fill="#000000" font-family="Helvetica" font-size="12px" clip-path="url(#mx-clip-1384-427-197-33-0)" style="fill: rgb(0, 0, 0);"><text x="1386" y="440.45">+granularity: str</text></g></g></g><g data-cell-id="6uPOkOA3K9cqIQYHYVLA-85"><g transform="translate(0.5,0.5)"><path d="M 1380 463.95 L 1585 463.95" fill="none" stroke="#000000" stroke-miterlimit="10" pointer-events="all" style="stroke: rgb(0, 0, 0);"/></g></g></g><g data-cell-id="6uPOkOA3K9cqIQYHYVLA-86"><g transform="translate(0.5,0.5)"><rect x="259" y="10" width="721" height="96" fill="#fff2cc" stroke="#d6b656" pointer-events="all" style="fill: rgb(255, 242, 204); stroke: rgb(214, 182, 86);"/></g><g><g fill="#000000" font-family="Helvetica" font-size="12px" style="fill: rgb(0, 0, 0);"><text x="265" y="28">ETL Pipeline:</text><text x="265" y="42">1. load_raw()</text><text x="265" y="56">2. _convert()</text><text x="265" y="70">3. _preprocess()</text><text x="265" y="84">4. _split()</text><text x="265" y="98">5. _save_atomic_files()</text></g></g></g><g data-cell-id="6uPOkOA3K9cqIQYHYVLA-87"><g transform="translate(0.5,0.5)"><path d="M 619.5 106 Q 619.5 106 745.5 160" fill="none" stroke="#000000" stroke-miterlimit="10" stroke-dasharray="2 3" pointer-events="stroke" style="stroke: rgb(0, 0, 0);"/></g></g><g data-cell-id="6uPOkOA3K9cqIQYHYVLA-88"><g transform="translate(0.5,0.5)"><path d="M 939.05 254.03 Q 1340 290 1473.79 227.47" fill="none" stroke="#000000" stroke-miterlimit="10" pointer-events="stroke" style="stroke: rgb(0, 0, 0);"/><path d="M 922.11 252.51 L 939.8 245.57 L 938.29 262.5 Z" fill="none" stroke="#000000" stroke-miterlimit="10" pointer-events="all" style="stroke: rgb(0, 0, 0);"/></g></g><g data-cell-id="6uPOkOA3K9cqIQYHYVLA-89"><g transform="translate(0.5,0.5)"><path d="M 239.95 555.13 Q 180 640 184 820" fill="none" stroke="#000000" stroke-miterlimit="10" pointer-events="stroke" style="stroke: rgb(0, 0, 0);"/><path d="M 249.75 541.25 L 246.89 560.04 L 233 550.23 Z" fill="none" stroke="#000000" stroke-miterlimit="10" pointer-events="all" style="stroke: rgb(0, 0, 0);"/></g></g><g data-cell-id="6uPOkOA3K9cqIQYHYVLA-90"><g transform="translate(0.5,0.5)"><path d="M 593.54 532.86 Q 556 560 556 623.74" fill="none" stroke="#000000" stroke-miterlimit="10" pointer-events="stroke" style="stroke: rgb(0, 0, 0);"/><path d="M 607.31 522.9 L 598.52 539.75 L 588.56 525.98 Z" fill="none" stroke="#000000" stroke-miterlimit="10" pointer-events="all" style="stroke: rgb(0, 0, 0);"/></g></g><g data-cell-id="6uPOkOA3K9cqIQYHYVLA-91"><g transform="translate(0.5,0.5)"><path d="M 799.42 539.56 Q 790 570 882.5 610" fill="none" stroke="#000000" stroke-miterlimit="10" pointer-events="stroke" style="stroke: rgb(0, 0, 0);"/><path d="M 804.45 523.32 L 807.54 542.07 L 791.3 537.04 Z" fill="none" stroke="#000000" stroke-miterlimit="10" pointer-events="all" style="stroke: rgb(0, 0, 0);"/></g></g><g data-cell-id="6uPOkOA3K9cqIQYHYVLA-92"><g transform="translate(0.5,0.5)"><path d="M 1288.18 422.15 Q 1310 450 1384.5 506.93" fill="none" stroke="#000000" stroke-miterlimit="10" pointer-events="stroke" style="stroke: rgb(0, 0, 0);"/><path d="M 1277.69 408.77 L 1294.87 416.91 L 1281.49 427.4 Z" fill="none" stroke="#000000" stroke-miterlimit="10" pointer-events="all" style="stroke: rgb(0, 0, 0);"/></g></g><g data-cell-id="6uPOkOA3K9cqIQYHYVLA-93"><g transform="translate(0.5,0.5)"><path d="M 554.03 262.1 Q 370 270 357.5 430" fill="none" stroke="#000000" stroke-miterlimit="10" pointer-events="stroke" style="stroke: rgb(0, 0, 0);"/><path d="M 569.01 261.45 L 561.71 266.18 L 554.03 262.1 L 561.33 257.37 Z" fill="#000000" stroke="#000000" stroke-miterlimit="10" pointer-events="all" style="fill: rgb(0, 0, 0); stroke: rgb(0, 0, 0);"/></g><g><g fill="#000000" font-family="Helvetica" text-anchor="middle" font-size="11px" style="fill: rgb(0, 0, 0);"><rect fill="#ffffff" stroke="none" x="380" y="268" width="48" height="14" stroke-width="0" style="fill: rgb(255, 255, 255);"/><text x="403.37" y="278.03">converter</text></g></g><g data-cell-id="6uPOkOA3K9cqIQYHYVLA-94"><g><g fill="#000000" font-family="Helvetica" font-size="12px" style="fill: rgb(0, 0, 0);"><text x="371.55" y="419.33">1</text></g></g></g></g><g data-cell-id="6uPOkOA3K9cqIQYHYVLA-95"><g transform="translate(0.5,0.5)"><path d="M 741.64 353.43 Q 740 360 706.5 410" fill="none" stroke="#000000" stroke-miterlimit="10" pointer-events="stroke" style="stroke: rgb(0, 0, 0);"/><path d="M 745.26 338.87 L 747.73 347.21 L 741.64 353.43 L 739.17 345.08 Z" fill="#000000" stroke="#000000" stroke-miterlimit="10" pointer-events="all" style="fill: rgb(0, 0, 0); stroke: rgb(0, 0, 0);"/></g><g><g fill="#000000" font-family="Helvetica" text-anchor="middle" font-size="11px" style="fill: rgb(0, 0, 0);"><rect fill="#ffffff" stroke="none" x="694" y="370" width="72" height="14" stroke-width="0" style="fill: rgb(255, 255, 255);"/><text x="729.29" y="380.48">preprocessors</text></g></g><g data-cell-id="6uPOkOA3K9cqIQYHYVLA-96"><g><g fill="#000000" font-family="Helvetica" font-size="12px" style="fill: rgb(0, 0, 0);"><text x="718.03" y="406.21">0..*</text></g></g></g></g><g data-cell-id="6uPOkOA3K9cqIQYHYVLA-97"><g transform="translate(0.5,0.5)"><path d="M 925.6 298.72 Q 950 380 990 381.23" fill="none" stroke="#000000" stroke-miterlimit="10" pointer-events="stroke" style="stroke: rgb(0, 0, 0);"/><path d="M 921.28 284.36 L 927.67 290.27 L 925.6 298.72 L 919.21 292.81 Z" fill="#000000" stroke="#000000" stroke-miterlimit="10" pointer-events="all" style="fill: rgb(0, 0, 0); stroke: rgb(0, 0, 0);"/></g><g><g fill="#000000" font-family="Helvetica" text-anchor="middle" font-size="11px" style="fill: rgb(0, 0, 0);"><rect fill="#ffffff" stroke="none" x="925" y="344" width="34" height="14" stroke-width="0" style="fill: rgb(255, 255, 255);"/><text x="941.13" y="354.96">splitter</text></g></g><g data-cell-id="6uPOkOA3K9cqIQYHYVLA-98"><g><g fill="#000000" font-family="Helvetica" font-size="12px" style="fill: rgb(0, 0, 0);"><text x="971.13" y="397.2">1</text></g></g></g></g><g data-cell-id="6uPOkOA3K9cqIQYHYVLA-99"><g transform="translate(0.5,0.5)"><path d="M 936.94 203.27 Q 980 200 1015 132" fill="none" stroke="#000000" stroke-miterlimit="10" pointer-events="stroke" style="stroke: rgb(0, 0, 0);"/><path d="M 921.98 204.4 L 929.13 199.44 L 936.94 203.27 L 929.8 208.24 Z" fill="none" stroke="#000000" stroke-miterlimit="10" pointer-events="all" style="stroke: rgb(0, 0, 0);"/></g><g><g fill="#000000" font-family="Helvetica" text-anchor="middle" font-size="11px" style="fill: rgb(0, 0, 0);"><rect fill="#ffffff" stroke="none" x="969" y="186" width="31" height="14" stroke-width="0" style="fill: rgb(255, 255, 255);"/><text x="984.04" y="196.65">config</text></g></g></g><g data-cell-id="6uPOkOA3K9cqIQYHYVLA-100"><g transform="translate(0.5,0.5)"><path d="M 448.2 549.27 Q 210 710 521.5 810" fill="none" stroke="#000000" stroke-miterlimit="10" pointer-events="stroke" style="stroke: rgb(0, 0, 0);"/><path d="M 460.63 540.88 L 456.88 548.74 L 448.2 549.27 L 451.95 541.42 Z" fill="none" stroke="#000000" stroke-miterlimit="10" pointer-events="all" style="stroke: rgb(0, 0, 0);"/></g><g><g fill="#000000" font-family="Helvetica" text-anchor="middle" font-size="11px" style="fill: rgb(0, 0, 0);"><rect fill="#ffffff" stroke="none" x="294" y="684" width="31" height="14" stroke-width="0" style="fill: rgb(255, 255, 255);"/><text x="309.19" y="694.62">config</text></g></g></g><g data-cell-id="6uPOkOA3K9cqIQYHYVLA-101"><g transform="translate(0.5,0.5)"><path d="M 1289.34 343.48 Q 1330 310 1380 339.95" fill="none" stroke="#000000" stroke-miterlimit="10" pointer-events="stroke" style="stroke: rgb(0, 0, 0);"/><path d="M 1277.76 353.02 L 1280.75 344.84 L 1289.34 343.48 L 1286.36 351.65 Z" fill="none" stroke="#000000" stroke-miterlimit="10" pointer-events="all" style="stroke: rgb(0, 0, 0);"/></g><g><g fill="#000000" font-family="Helvetica" text-anchor="middle" font-size="11px" style="fill: rgb(0, 0, 0);"><rect fill="#ffffff" stroke="none" x="1311" y="307" width="31" height="14" stroke-width="0" style="fill: rgb(255, 255, 255);"/><text x="1326.41" y="317.46">config</text></g></g></g></g></g></g></svg>